solid Visualization Toolkit generated SLA File
 facet normal 0 0.93417234926898851 -0.35682211515159623
  outer loop
   vertex 0 0.52573114633560181 -0.85065090656280518
   vertex -0.52573114633560181 0.85065090656280518 0
   vertex 0.52573114633560181 0.85065090656280518 0
  endloop
 endfacet
 facet normal 0 0.93417234926898851 0.35682211515159623
  outer loop
   vertex 0 0.52573114633560181 0.85065090656280518
   vertex 0.52573114633560181 0.85065090656280518 0
   vertex -0.52573114633560181 0.85065090656280518 0
  endloop
 endfacet
 facet normal -0.35682211515159623 0 0.93417234926898851
  outer loop
   vertex 0 0.52573114633560181 0.85065090656280518
   vertex -0.85065090656280518 0 0.52573114633560181
   vertex 0 -0.52573114633560181 0.85065090656280518
  endloop
 endfacet
 facet normal 0.35682211515159623 -0 0.93417234926898851
  outer loop
   vertex 0 0.52573114633560181 0.85065090656280518
   vertex 0 -0.52573114633560181 0.85065090656280518
   vertex 0.85065090656280518 0 0.52573114633560181
  endloop
 endfacet
 facet normal 0.35682211515159623 0 -0.93417234926898851
  outer loop
   vertex 0 0.52573114633560181 -0.85065090656280518
   vertex 0.85065090656280518 0 -0.52573114633560181
   vertex 0 -0.52573114633560181 -0.85065090656280518
  endloop
 endfacet
 facet normal -0.35682211515159623 0 -0.93417234926898851
  outer loop
   vertex 0 0.52573114633560181 -0.85065090656280518
   vertex 0 -0.52573114633560181 -0.85065090656280518
   vertex -0.85065090656280518 0 -0.52573114633560181
  endloop
 endfacet
 facet normal 0 -0.93417234926898851 0.35682211515159623
  outer loop
   vertex 0 -0.52573114633560181 0.85065090656280518
   vertex -0.52573114633560181 -0.85065090656280518 0
   vertex 0.52573114633560181 -0.85065090656280518 0
  endloop
 endfacet
 facet normal -0 -0.93417234926898851 -0.35682211515159623
  outer loop
   vertex 0 -0.52573114633560181 -0.85065090656280518
   vertex 0.52573114633560181 -0.85065090656280518 0
   vertex -0.52573114633560181 -0.85065090656280518 0
  endloop
 endfacet
 facet normal -0.93417234926898851 0.35682211515159623 0
  outer loop
   vertex -0.52573114633560181 0.85065090656280518 0
   vertex -0.85065090656280518 0 -0.52573114633560181
   vertex -0.85065090656280518 0 0.52573114633560181
  endloop
 endfacet
 facet normal -0.93417234926898851 -0.35682211515159623 -0
  outer loop
   vertex -0.52573114633560181 -0.85065090656280518 0
   vertex -0.85065090656280518 0 0.52573114633560181
   vertex -0.85065090656280518 0 -0.52573114633560181
  endloop
 endfacet
 facet normal 0.93417234926898851 0.35682211515159623 0
  outer loop
   vertex 0.52573114633560181 0.85065090656280518 0
   vertex 0.85065090656280518 0 0.52573114633560181
   vertex 0.85065090656280518 0 -0.52573114633560181
  endloop
 endfacet
 facet normal 0.93417234926898851 -0.35682211515159623 0
  outer loop
   vertex 0.52573114633560181 -0.85065090656280518 0
   vertex 0.85065090656280518 0 -0.52573114633560181
   vertex 0.85065090656280518 0 0.52573114633560181
  endloop
 endfacet
 facet normal -0.57735026918962573 0.57735026918962573 0.57735026918962573
  outer loop
   vertex 0 0.52573114633560181 0.85065090656280518
   vertex -0.52573114633560181 0.85065090656280518 0
   vertex -0.85065090656280518 0 0.52573114633560181
  endloop
 endfacet
 facet normal 0.57735026918962573 0.57735026918962573 0.57735026918962573
  outer loop
   vertex 0 0.52573114633560181 0.85065090656280518
   vertex 0.85065090656280518 0 0.52573114633560181
   vertex 0.52573114633560181 0.85065090656280518 0
  endloop
 endfacet
 facet normal -0.57735026918962573 0.57735026918962573 -0.57735026918962573
  outer loop
   vertex 0 0.52573114633560181 -0.85065090656280518
   vertex -0.85065090656280518 0 -0.52573114633560181
   vertex -0.52573114633560181 0.85065090656280518 0
  endloop
 endfacet
 facet normal 0.57735026918962573 0.57735026918962573 -0.57735026918962573
  outer loop
   vertex 0 0.52573114633560181 -0.85065090656280518
   vertex 0.52573114633560181 0.85065090656280518 0
   vertex 0.85065090656280518 0 -0.52573114633560181
  endloop
 endfacet
 facet normal -0.57735026918962573 -0.57735026918962573 -0.57735026918962573
  outer loop
   vertex 0 -0.52573114633560181 -0.85065090656280518
   vertex -0.52573114633560181 -0.85065090656280518 0
   vertex -0.85065090656280518 0 -0.52573114633560181
  endloop
 endfacet
 facet normal 0.57735026918962573 -0.57735026918962573 -0.57735026918962573
  outer loop
   vertex 0 -0.52573114633560181 -0.85065090656280518
   vertex 0.85065090656280518 0 -0.52573114633560181
   vertex 0.52573114633560181 -0.85065090656280518 0
  endloop
 endfacet
 facet normal -0.57735026918962573 -0.57735026918962573 0.57735026918962573
  outer loop
   vertex 0 -0.52573114633560181 0.85065090656280518
   vertex -0.85065090656280518 0 0.52573114633560181
   vertex -0.52573114633560181 -0.85065090656280518 0
  endloop
 endfacet
 facet normal 0.57735026918962573 -0.57735026918962573 0.57735026918962573
  outer loop
   vertex 0 -0.52573114633560181 0.85065090656280518
   vertex 0.52573114633560181 -0.85065090656280518 0
   vertex 0.85065090656280518 0 0.52573114633560181
  endloop
 endfacet
endsolid
